<?xml version="1.0" standalone="no"?>
<!DOCTYPE svg PUBLIC "-//W3C//DTD SVG 20010904//EN"
 "http://www.w3.org/TR/2001/REC-SVG-20010904/DTD/svg10.dtd">
<svg version="1.0" xmlns="http://www.w3.org/2000/svg"
 width="640.000000pt" height="640.000000pt" viewBox="0 0 640.000000 640.000000"
 preserveAspectRatio="xMidYMid meet">
<metadata>
Created by potrace 1.11, written by Peter Selinger 2001-2013
</metadata>
<g transform="translate(0.000000,640.000000) scale(0.100000,-0.100000)"
fill="#000000" stroke="none">
<path d="M2980 6394 c-353 -32 -661 -101 -938 -210 -435 -172 -772 -393 -1102
-724 -516 -515 -819 -1133 -917 -1868 -24 -177 -24 -607 0 -784 120 -897 571
-1663 1294 -2196 421 -311 939 -515 1491 -589 177 -24 607 -24 784 0 742 99
1399 427 1903 948 490 507 787 1125 882 1837 24 177 24 607 0 784 -120 897
-572 1664 -1294 2196 -420 310 -946 518 -1486 588 -116 15 -520 27 -617 18z
m415 -135 c682 -46 1300 -299 1810 -740 720 -623 1116 -1558 1056 -2491 -28
-431 -122 -794 -301 -1163 -417 -860 -1223 -1487 -2146 -1669 -185 -36 -249
-44 -442 -57 -331 -21 -706 21 -1031 117 -1006 296 -1789 1079 -2085 2085 -96
325 -138 700 -117 1030 29 439 122 797 306 1174 482 986 1456 1641 2547 1714
168 12 237 12 403 0z"/>
<path d="M4391 5583 c-11 -10 -133 -164 -272 -343 -138 -179 -254 -324 -258
-323 -84 21 -296 56 -413 69 -241 26 -541 11 -883 -44 l-110 -18 -96 197
c-162 331 -253 449 -346 449 -149 0 -542 -602 -727 -1113 -104 -286 -146 -500
-153 -774 -6 -222 6 -325 54 -472 128 -394 459 -722 933 -922 41 -17 76 -32
77 -33 2 -1 -28 -126 -66 -277 -96 -381 -125 -543 -125 -699 -1 -111 2 -131
23 -177 54 -120 182 -190 406 -223 130 -18 528 -32 750 -26 563 16 871 107
975 289 59 104 52 180 -37 390 -82 194 -105 265 -110 337 -4 56 -2 69 17 93
62 78 137 43 233 -110 15 -23 63 -114 108 -203 93 -183 141 -238 232 -265 120
-36 278 -7 360 65 99 88 387 441 387 476 0 36 -35 66 -73 62 -26 -3 -48 -24
-149 -147 -243 -296 -278 -327 -384 -338 -62 -7 -128 14 -162 50 -11 12 -46
74 -77 137 -164 330 -272 450 -405 450 -83 0 -166 -56 -206 -137 -24 -49 -24
-166 0 -248 10 -33 49 -136 88 -230 82 -196 94 -261 60 -317 -55 -89 -214
-153 -482 -195 -167 -26 -930 -26 -1096 0 -233 36 -302 77 -323 193 -23 121
39 449 190 1006 33 124 30 130 -99 178 -388 146 -704 407 -856 708 -201 397
-137 996 174 1637 121 248 288 509 410 638 l58 62 21 -25 c55 -64 183 -302
271 -502 62 -142 48 -136 245 -104 293 47 437 58 690 53 238 -5 373 -21 561
-68 46 -12 94 -19 106 -15 15 4 108 116 263 316 132 170 243 310 247 310 23 0
303 -616 391 -861 148 -409 206 -738 163 -923 -64 -271 -326 -446 -667 -446
-239 0 -351 78 -366 257 -11 136 46 303 131 381 96 88 180 80 286 -28 73 -74
89 -84 125 -70 37 14 49 54 29 96 -22 45 -121 136 -181 165 -65 32 -163 37
-235 14 -115 -39 -232 -197 -273 -372 -24 -98 -17 -255 14 -335 64 -164 218
-242 476 -242 524 2 857 345 806 831 -40 380 -197 836 -492 1430 -151 303
-178 336 -238 286z"/>
<path d="M2739 4001 c-55 -11 -127 -58 -154 -99 -34 -51 -49 -136 -35 -197 27
-121 98 -192 237 -236 92 -29 152 -61 187 -98 24 -25 29 -39 28 -76 0 -25 -6
-52 -12 -60 -38 -46 -234 -60 -330 -24 -83 31 -117 34 -140 14 -21 -19 -26
-55 -10 -84 15 -29 119 -69 211 -82 155 -21 317 20 373 94 46 61 58 150 31
229 -30 86 -124 157 -275 207 -117 38 -157 74 -167 150 -11 84 34 131 127 131
70 0 117 -22 172 -80 27 -30 55 -50 67 -50 26 0 71 42 71 65 0 49 -78 132
-160 169 -60 27 -162 40 -221 27z"/>
<path d="M1695 3975 l-25 -24 0 -299 c0 -165 5 -323 10 -352 20 -108 76 -181
169 -224 36 -16 66 -20 136 -20 96 0 153 17 234 68 l40 25 6 -32 c4 -18 14
-40 23 -49 21 -25 74 -23 97 2 18 20 18 24 0 133 -23 141 -23 404 -1 567 20
145 20 146 -4 170 -25 25 -61 26 -89 3 -30 -26 -51 -179 -59 -434 -8 -240 -4
-228 -115 -284 -125 -63 -238 -44 -284 45 -22 43 -23 52 -23 363 l0 318 -25
24 c-31 32 -59 32 -90 0z"/>
<path d="M3226 3959 c-35 -28 -35 -70 0 -98 23 -18 41 -21 140 -21 l114 0 0
-368 c0 -345 1 -370 18 -385 27 -25 78 -22 96 5 14 19 16 73 16 385 l0 363 94
0 c111 0 139 14 139 70 0 22 -7 39 -22 52 -21 16 -46 18 -296 18 -260 0 -273
-1 -299 -21z"/>
<path d="M2857 2319 c-125 -30 -198 -141 -183 -283 17 -174 209 -401 429 -507
l47 -23 48 23 c133 65 293 219 355 342 39 78 67 172 67 224 0 62 -28 131 -69
168 -100 91 -246 79 -359 -29 l-43 -42 -40 43 c-65 71 -166 105 -252 84z"/>
</g>
</svg>
